HIERARCHY
ROOT Hips
{
	OFFSET 0.000000 0.000000 0.000000
	CHANNELS 6 Xposition Yposition Zposition Zrotation Yrotation Xrotation 
	JOINT LowerBack
	{
		OFFSET 0.000000 0.000000 0.000000
		CHANNELS 3 Zrotation Yrotation Xrotation
		JOINT Spine
		{
			OFFSET 0.028270 2.035590 -0.193380
			CHANNELS 3 Zrotation Yrotation Xrotation
			JOINT Spine1
			{
				OFFSET 0.056720 2.048850 -0.042750
				CHANNELS 3 Zrotation Yrotation Xrotation
				JOINT Neck
				{
					OFFSET 0.000000 0.000000 0.000000
					CHANNELS 3 Zrotation Yrotation Xrotation
					JOINT Neck1
					{
						OFFSET -0.054170 1.746240 0.172020
						CHANNELS 3 Zrotation Yrotation Xrotation
						JOINT Head
						{
							OFFSET 0.104070 1.761360 -0.123970
							CHANNELS 3 Zrotation Yrotation Xrotation
							End Site
							{
								OFFSET 0.000000 0.000000 0.000000
							}
						}
					}
				}
				JOINT LeftShoulder
				{
					OFFSET 0.000000 0.000000 0.000000
					CHANNELS 3 Zrotation Yrotation Xrotation
					JOINT LeftArm
					{
						OFFSET 3.362410 1.200890 -0.311210
						CHANNELS 3 Zrotation Yrotation Xrotation
						JOINT LeftForeArm
						{
							OFFSET 4.983000 -0.000000 -0.000000
							CHANNELS 3 Zrotation Yrotation Xrotation
							JOINT LeftHand
							{
								OFFSET 3.483560 -0.000000 -0.000000
								CHANNELS 3 Zrotation Yrotation Xrotation
								JOINT LeftFingerBase
								{
									OFFSET 0.000000 0.000000 0.000000
									CHANNELS 3 Zrotation Yrotation Xrotation
									JOINT LeftHandIndex1
									{
										OFFSET 0.715260 -0.000000 -0.000000
										CHANNELS 3 Zrotation Yrotation Xrotation
										End Site
										{
											OFFSET 0.000000 0.000000 0.000000
										}
									}
								}
								JOINT LThumb
								{
									OFFSET 0.000000 0.000000 0.000000
									CHANNELS 3 Zrotation Yrotation Xrotation
									End Site
									{
										OFFSET 0.000000 0.000000 0.000000
									}
								}
							}
						}
					}
				}
				JOINT RightShoulder
				{
					OFFSET 0.000000 0.000000 0.000000
					CHANNELS 3 Zrotation Yrotation Xrotation
					JOINT RightArm
					{
						OFFSET -3.136600 1.374050 -0.404650
						CHANNELS 3 Zrotation Yrotation Xrotation
						JOINT RightForeArm
						{
							OFFSET -5.241900 -0.000000 -0.000000
							CHANNELS 3 Zrotation Yrotation Xrotation
							JOINT RightHand
							{
								OFFSET -3.444170 -0.000000 -0.000000
								CHANNELS 3 Zrotation Yrotation Xrotation
								JOINT RightFingerBase
								{
									OFFSET 0.000000 0.000000 0.000000
									CHANNELS 3 Zrotation Yrotation Xrotation
									JOINT RightHandIndex1
									{
										OFFSET -0.622530 -0.000000 -0.000000
										CHANNELS 3 Zrotation Yrotation Xrotation
										End Site
										{
											OFFSET 0.000000 0.000000 0.000000
										}
									}
								}
								JOINT RThumb
								{
									OFFSET 0.000000 0.000000 0.000000
									CHANNELS 3 Zrotation Yrotation Xrotation
									End Site
									{
										OFFSET 0.000000 0.000000 0.000000
									}
								}
							}
						}
					}
				}
			}
		}
	}
}
}
MOTION
Frames: 17
Frame Time: 0.008333
-18.761936 15.004991 -0.791269 -59.262850 83.577159 -19.736720 -5.794269 0.333484 5.285616 -2.147191 0.672022 -1.915869 -5.980482 0.763461 -0.049344 8.522388 -14.922176 -9.364996 -0.410388 0.029869 -0.883578 0.000000 0.000000 0.000000 10.696782 15.537053 1.398732 -70.172406 34.148724 21.302874 -179.897065 -87.129336 -179.994275 -1.844314 2.580496 -0.040355 0.038707 0.114869 0.000000 0.000000 0.000000 0.000000 0.000000 0.000000 0.000000 -0.690623 -7.929635 -0.518017 74.322339 -5.956812 28.481404 179.595512 68.579996 179.998782 0.393854 3.632839 0.017602 -0.084861 -0.489687 -0.000000 0.000000 0.000000 0.000000 0.000000 0.000000 0.000000 
-18.579512 14.986205 -0.807584 -61.718913 83.598554 -22.240228 -5.987432 0.259171 5.516904 -2.213765 0.603642 -1.869960 -6.082663 0.700005 -0.106778 8.605834 -14.717670 -9.288710 -0.509452 0.021284 -0.873932 0.000000 0.000000 0.000000 10.417378 15.063182 1.450309 -70.329255 32.808079 20.352645 -179.919907 -87.750519 -179.995036 -1.508225 2.687713 -0.034286 0.029584 0.119796 0.000000 0.000000 0.000000 0.000000 0.000000 0.000000 0.000000 -0.261587 -7.752782 -0.490936 74.818139 -6.025728 28.272182 179.617539 68.909268 179.998284 0.352325 3.695863 0.016407 -0.086108 -0.492861 0.000000 0.000000 0.000000 0.000000 0.000000 0.000000 0.000000 
-18.400353 14.969654 -0.825046 -64.507445 83.627450 -25.068596 -6.143458 0.178191 5.756592 -2.270208 0.527573 -1.817861 -6.172258 0.628736 -0.153414 8.661699 -14.500545 -9.183983 -0.610478 0.012096 -0.856983 0.000000 0.000000 0.000000 10.167978 14.589444 1.495224 -70.493186 31.376897 19.412949 -179.944971 -88.425370 -179.995879 -1.174185 2.816937 -0.027820 0.020510 0.124627 0.000000 0.000000 0.000000 0.000000 0.000000 0.000000 0.000000 0.165048 -7.586095 -0.470898 75.316412 -6.056686 28.047811 179.640787 69.379004 179.997736 0.300415 3.752510 0.014812 -0.086637 -0.494612 -0.000000 0.000000 0.000000 0.000000 0.000000 0.000000 0.000000 
-18.224102 14.954963 -0.843563 -67.623661 83.653652 -28.209636 -6.260670 0.089955 5.989474 -2.315818 0.443034 -1.765010 -6.248630 0.548468 -0.196762 8.685671 -14.266691 -9.044639 -0.711820 0.002293 -0.830243 0.000000 0.000000 0.000000 9.924333 14.085727 1.529778 -70.656018 29.926071 18.446450 -179.970192 -89.103805 -179.996823 -0.838691 2.961743 -0.020654 0.011488 0.129440 0.000000 0.000000 0.000000 0.000000 0.000000 0.000000 0.000000 0.574438 -7.423647 -0.454908 75.819875 -6.067306 27.810808 179.664384 69.994334 179.997250 0.254104 3.803792 0.013214 -0.086867 -0.494828 -0.000000 0.000000 0.000000 0.000000 0.000000 0.000000 0.000000 
-18.050106 14.941759 -0.862937 -71.028344 83.672745 -31.621022 -6.345635 -0.005981 6.207000 -2.351510 0.349610 -1.712903 -6.310102 0.458722 -0.235138 8.679178 -14.020160 -8.872848 -0.811088 -0.007890 -0.793959 0.000000 0.000000 0.000000 9.695187 13.556026 1.552672 -70.820520 28.470819 17.455315 -179.995174 -89.775880 -179.997908 -0.496795 3.114844 -0.012592 0.002461 0.134344 0.000000 0.000000 0.000000 0.000000 0.000000 0.000000 0.000000 0.959220 -7.270014 -0.442654 76.327047 -6.062448 27.564726 179.687992 70.755713 179.996897 0.223708 3.849302 0.012212 -0.087077 -0.493417 -0.000000 0.000000 0.000000 0.000000 0.000000 0.000000 0.000000 
-17.878799 14.929774 -0.882881 -74.669851 83.682746 -35.250501 -6.407828 -0.109585 6.405021 -2.378767 0.247475 -1.660617 -6.354628 0.359846 -0.261463 8.646794 -13.771206 -8.677244 -0.905529 -0.018061 -0.750459 0.000000 0.000000 0.000000 9.503492 13.029196 1.563587 -70.990416 26.989075 16.470329 -0.020432 -89.546207 0.000882 -0.142138 3.272226 -0.003231 -0.006711 0.139428 0.000000 0.000000 0.000000 0.000000 0.000000 0.000000 0.000000 1.316612 -7.136559 -0.435247 76.833234 -6.038412 27.315093 179.711430 71.660724 179.996726 0.215671 3.885754 0.012006 -0.087421 -0.490263 0.000000 0.000000 0.000000 0.000000 0.000000 0.000000 0.000000 
-17.709775 14.918878 -0.903119 -78.468714 83.682114 -39.017805 -6.456785 -0.220832 6.580121 -2.399577 0.136720 -1.609634 -6.382707 0.251918 -0.277957 8.592163 -13.521194 -8.460946 -0.994185 -0.028088 -0.700422 0.000000 0.000000 0.000000 9.347673 12.502239 1.561732 -71.160802 25.500385 15.491349 -0.045128 -88.882495 -0.000496 0.233304 3.426804 0.007628 -0.016107 0.144803 0.000000 0.000000 0.000000 0.000000 0.000000 0.000000 0.000000 1.644626 -7.022353 -0.430931 77.336523 -6.003467 27.061083 179.734555 72.701115 179.996740 0.230693 3.911692 0.012595 -0.087900 -0.485426 0.000000 0.000000 0.000000 0.000000 0.000000 0.000000 0.000000 
-17.543001 14.909078 -0.923313 -82.363521 83.671295 -42.862320 -6.500075 -0.339574 6.733128 -2.415744 0.017604 -1.560840 -6.395723 0.135201 -0.288180 8.519275 -13.271866 -8.227119 -1.076882 -0.037903 -0.644679 0.000000 0.000000 0.000000 9.223681 11.966197 1.546879 -71.324121 24.024194 14.517268 -0.068332 -88.254512 -0.002096 0.634037 3.572759 0.020286 -0.025721 0.150551 0.000000 0.000000 0.000000 0.000000 0.000000 0.000000 0.000000 1.944819 -6.926257 -0.427056 77.833146 -5.964963 26.801564 179.757224 73.867603 179.996919 0.264817 3.924915 0.013982 -0.088368 -0.479006 0.000000 0.000000 0.000000 0.000000 0.000000 0.000000 0.000000 
-17.379024 14.900438 -0.943268 -86.320129 83.651955 -46.753148 -6.543748 -0.465868 6.868804 -2.428768 -0.109680 -1.513373 -6.395254 0.010044 -0.292532 8.433497 -13.026747 -7.982062 -1.153512 -0.047378 -0.585134 0.000000 0.000000 0.000000 9.135203 11.428605 1.519770 -71.473118 22.556460 13.566104 -0.089737 -87.669005 -0.003922 1.063143 3.705560 0.034641 -0.035573 0.156740 0.000000 0.000000 0.000000 0.000000 0.000000 0.000000 0.000000 2.221099 -6.849482 -0.422575 78.317360 -5.924900 26.536496 179.779703 75.144442 179.997195 0.308277 3.923745 0.015566 -0.088599 -0.471178 0.000000 0.000000 0.000000 0.000000 0.000000 0.000000 0.000000 
-17.217662 14.893122 -0.962792 -90.322500 83.626005 -50.677932 -6.590853 -0.599874 6.993867 -2.439707 -0.245057 -1.466432 -6.383645 -0.123352 -0.293404 8.339112 -12.788118 -7.730794 -1.224774 -0.056476 -0.523372 0.000000 0.000000 0.000000 9.079396 10.888396 1.481504 -71.597804 21.099391 12.650376 -0.108857 -87.137033 -0.005974 1.518494 3.821741 0.050594 -0.045588 0.163402 0.000000 0.000000 0.000000 0.000000 0.000000 0.000000 0.000000 2.479070 -6.791527 -0.415704 78.781579 -5.886154 26.265384 179.802186 76.515176 179.997484 0.348258 3.907356 0.017053 -0.088306 -0.462170 0.000000 0.000000 0.000000 0.000000 0.000000 0.000000 0.000000 
-17.059330 14.887277 -0.981864 -94.373252 83.594807 -54.643300 -6.642294 -0.741659 7.116228 -2.449207 -0.388339 -1.418293 -6.363393 -0.264583 -0.290837 8.240536 -12.559805 -7.479864 -1.291526 -0.065145 -0.461482 0.000000 0.000000 0.000000 9.055701 10.355936 1.433670 -71.687999 19.639346 11.794222 -0.125638 -86.659557 -0.008242 1.993874 3.921278 0.067845 -0.055687 0.170513 0.000000 0.000000 0.000000 0.000000 0.000000 0.000000 0.000000 2.725711 -6.754010 -0.405937 79.216394 -5.847855 25.989658 179.824865 77.958482 179.997699 0.371010 3.874501 0.017639 -0.087247 -0.452225 0.000000 0.000000 0.000000 0.000000 0.000000 0.000000 0.000000 
-16.904390 14.883208 -1.000432 -98.433959 83.557637 -58.616887 -6.697955 -0.890072 7.243314 -2.458212 -0.538402 -1.370766 -6.338437 -0.412750 -0.297186 8.137525 -12.334046 -7.224115 -1.355928 -0.073650 -0.398003 0.000000 0.000000 0.000000 9.043100 9.780318 1.377689 -71.733660 18.235861 10.961826 -0.138315 -86.280300 -0.010654 2.474300 3.998349 0.085491 -0.065446 0.178053 0.000000 0.000000 0.000000 0.000000 0.000000 0.000000 0.000000 2.963115 -6.723778 -0.388254 79.616842 -5.823359 25.705940 179.847795 79.457482 179.997723 0.358353 3.832704 0.016829 -0.085104 -0.441821 0.000000 0.000000 0.000000 0.000000 0.000000 0.000000 0.000000 
-16.752707 14.880891 -1.018678 -102.479616 83.513030 -62.575829 -6.756560 -1.043469 7.381646 -2.466773 -0.693450 -1.319782 -6.310017 -0.565580 -0.302621 8.034906 -12.121486 -6.977008 -1.418139 -0.081755 -0.337125 0.000000 0.000000 0.000000 9.055931 9.218616 1.316006 -71.727674 16.818484 10.218945 -0.148532 -85.960065 -0.013178 2.947642 4.060334 0.103033 -0.074894 0.185902 0.000000 0.000000 0.000000 0.000000 0.000000 0.000000 0.000000 3.200429 -6.711188 -0.366365 79.967911 -5.799254 25.423088 179.870920 80.987220 179.997508 0.300550 3.778921 0.014424 -0.081815 -0.431099 0.000000 0.000000 0.000000 0.000000 0.000000 0.000000 0.000000 
-16.604829 14.880439 -1.036774 -106.420154 83.457485 -66.433936 -6.815803 -1.198500 7.534604 -2.475292 -0.850342 -1.266163 -6.281033 -0.720029 -0.312099 7.932181 -11.919233 -6.737671 -1.479579 -0.089594 -0.278610 0.000000 0.000000 0.000000 9.083210 8.653695 1.250379 -71.664119 15.407671 9.555633 -0.155776 -85.713048 -0.015713 3.394139 4.108412 0.119770 -0.083687 0.193940 0.000000 0.000000 0.000000 0.000000 0.000000 0.000000 0.000000 3.439728 -6.709067 -0.338409 80.261913 -5.781111 25.143352 179.893939 82.529494 179.996999 0.187478 3.719494 0.009922 -0.077305 -0.420419 0.000000 0.000000 0.000000 0.000000 0.000000 0.000000 0.000000 
-16.460821 14.881778 -1.054905 -110.144638 83.387305 -70.082132 -6.871852 -1.350875 7.703317 -2.483701 -1.005040 -1.209993 -6.253515 -0.872080 -0.325826 7.829143 -11.727243 -6.508044 -1.540994 -0.097192 -0.223048 0.000000 0.000000 0.000000 9.122198 8.090318 1.182663 -71.540228 13.999348 8.978691 -0.160291 -85.534851 -0.018156 3.794445 4.146442 0.134704 -0.091569 0.202030 0.000000 0.000000 0.000000 0.000000 0.000000 0.000000 0.000000 3.682618 -6.713892 -0.304503 80.490780 -5.769715 24.871252 179.916441 84.065852 179.996185 0.015077 3.658970 0.003426 -0.071635 -0.410034 0.000000 0.000000 0.000000 0.000000 0.000000 0.000000 0.000000 
-16.320631 14.884823 -1.073243 -113.529725 83.299124 -73.398107 -6.919772 -1.495977 7.885933 -2.491598 -1.153208 -1.151939 -6.229111 -1.017486 -0.343484 7.724994 -11.545258 -6.289312 -1.602777 -0.104571 -0.170735 0.000000 0.000000 0.000000 9.171222 7.533428 1.114419 -71.356270 12.590561 8.490176 -0.162367 -85.419352 -0.020397 4.130389 4.178089 0.147431 -0.098308 0.210040 0.000000 0.000000 0.000000 0.000000 0.000000 0.000000 0.000000 3.928723 -6.721995 -0.264968 80.648608 -5.766461 24.612101 179.937968 85.580531 179.995085 -0.214815 3.601859 -0.004866 -0.064965 -0.400136 0.000000 0.000000 0.000000 0.000000 0.000000 0.000000 0.000000 
-16.184051 14.889367 -1.091987 -116.462693 83.190522 -76.268457 -6.953513 -1.629521 8.078292 -2.498133 -1.290789 -1.092993 -6.208858 -1.152329 -0.364055 7.618696 -11.372930 -6.082163 -1.664834 -0.111723 -0.121790 0.000000 0.000000 0.000000 9.229844 6.989284 1.046964 -71.115507 11.177754 8.088943 -0.162365 -85.357677 -0.022333 4.386946 4.207529 0.157453 -0.103722 0.217848 0.000000 0.000000 0.000000 0.000000 0.000000 0.000000 0.000000 4.175546 -6.729971 -0.220391 80.731962 -5.773269 24.370323 179.958123 87.060685 179.993751 -0.495034 3.551944 -0.014757 -0.057529 -0.390841 0.000000 0.000000 0.000000 0.000000 0.000000 0.000000 0.000000 
